<svg width="1638" height="2199" viewBox="0 0 1638 2199" fill="none" xmlns="http://www.w3.org/2000/svg">
<g filter="url(#filter0_b_0_1)">
<rect width="1638" height="2199" rx="46" fill="url(#paint0_radial_0_1)" fill-opacity="0.1"/>
<rect x="0.451155" y="0.451155" width="1637.1" height="2198.1" rx="45.5488" stroke="url(#paint1_radial_0_1)" stroke-width="0.90231"/>
<rect x="0.451155" y="0.451155" width="1637.1" height="2198.1" rx="45.5488" stroke="url(#paint2_radial_0_1)" stroke-width="0.90231"/>
<rect x="0.451155" y="0.451155" width="1637.1" height="2198.1" rx="45.5488" stroke="url(#paint3_radial_0_1)" stroke-width="0.90231"/>
</g>
<path d="M905.229 485.45C908.935 485.45 911.939 482.529 911.939 478.925C911.939 475.321 908.935 472.4 905.229 472.4C901.524 472.4 898.52 475.321 898.52 478.925C898.52 482.529 901.524 485.45 905.229 485.45Z" fill="#55569E"/>
<path d="M915.211 492.397C913.506 488.713 909.664 486.135 905.254 486.135C901.006 486.135 897.354 488.476 895.514 491.897C895.189 492.318 895 492.818 895 493.37C895 494.739 896.136 495.817 897.516 495.817H912.884C914.291 495.817 915.4 494.712 915.4 493.37C915.4 493.028 915.346 492.686 915.211 492.397Z" fill="#55569E"/>
<defs>
<filter id="filter0_b_0_1" x="-18.9485" y="-18.9485" width="1675.9" height="2236.9" filterUnits="userSpaceOnUse" color-interpolation-filters="sRGB">
<feFlood flood-opacity="0" result="BackgroundImageFix"/>
<feGaussianBlur in="BackgroundImageFix" stdDeviation="9.47425"/>
<feComposite in2="SourceAlpha" operator="in" result="effect1_backgroundBlur_0_1"/>
<feBlend mode="normal" in="SourceGraphic" in2="effect1_backgroundBlur_0_1" result="shape"/>
</filter>
<radialGradient id="paint0_radial_0_1" cx="0" cy="0" r="1" gradientUnits="userSpaceOnUse" gradientTransform="translate(6.26713e-05 -19.991) rotate(52.8624) scale(2917.27 1937.24)">
<stop stop-color="white" stop-opacity="0.4"/>
<stop offset="1" stop-color="white" stop-opacity="0"/>
</radialGradient>
<radialGradient id="paint1_radial_0_1" cx="0" cy="0" r="1" gradientUnits="userSpaceOnUse" gradientTransform="translate(218.665 -63.3045) rotate(71.2843) scale(2515.25 1816.15)">
<stop stop-color="#A8A8A8" stop-opacity="0.83"/>
<stop offset="1" stop-color="#B3B3B3" stop-opacity="0"/>
</radialGradient>
<radialGradient id="paint2_radial_0_1" cx="0" cy="0" r="1" gradientUnits="userSpaceOnUse" gradientTransform="translate(1510.78 2199) rotate(-133.343) scale(1007.89 645.476)">
<stop stop-color="#D3D3D3" stop-opacity="0.66"/>
<stop offset="1" stop-color="#A9A9A9" stop-opacity="0"/>
</radialGradient>
<radialGradient id="paint3_radial_0_1" cx="0" cy="0" r="1" gradientUnits="userSpaceOnUse" gradientTransform="translate(-19.8786 2089.05) rotate(-39.6811) scale(1549.77 950.854)">
<stop stop-color="#F2F2F2"/>
<stop offset="1" stop-color="#828282" stop-opacity="0"/>
</radialGradient>
</defs>
</svg>
