<svg width="1638" height="2011" viewBox="0 0 1638 2011" fill="none" xmlns="http://www.w3.org/2000/svg">
<g filter="url(#filter0_b_0_1)">
<rect y="-6.10352e-05" width="1638" height="2011" rx="46" fill="url(#paint0_radial_0_1)" fill-opacity="0.1"/>
<rect x="0.451155" y="0.451094" width="1637.1" height="2010.1" rx="45.5488" stroke="url(#paint1_radial_0_1)" stroke-width="0.90231"/>
<rect x="0.451155" y="0.451094" width="1637.1" height="2010.1" rx="45.5488" stroke="url(#paint2_radial_0_1)" stroke-width="0.90231"/>
<rect x="0.451155" y="0.451094" width="1637.1" height="2010.1" rx="45.5488" stroke="url(#paint3_radial_0_1)" stroke-width="0.90231"/>
</g>
<path d="M915.229 445.45C918.935 445.45 921.939 442.529 921.939 438.925C921.939 435.321 918.935 432.4 915.229 432.4C911.524 432.4 908.52 435.321 908.52 438.925C908.52 442.529 911.524 445.45 915.229 445.45Z" fill="#55569E"/>
<path d="M925.211 452.397C923.506 448.713 919.664 446.135 915.254 446.135C911.006 446.135 907.354 448.476 905.514 451.897C905.189 452.318 905 452.818 905 453.37C905 454.739 906.136 455.817 907.516 455.817H922.884C924.291 455.817 925.4 454.712 925.4 453.37C925.4 453.028 925.346 452.686 925.211 452.397Z" fill="#55569E"/>
<defs>
<filter id="filter0_b_0_1" x="-18.9485" y="-18.9486" width="1675.9" height="2048.9" filterUnits="userSpaceOnUse" color-interpolation-filters="sRGB">
<feFlood flood-opacity="0" result="BackgroundImageFix"/>
<feGaussianBlur in="BackgroundImageFix" stdDeviation="9.47425"/>
<feComposite in2="SourceAlpha" operator="in" result="effect1_backgroundBlur_0_1"/>
<feBlend mode="normal" in="SourceGraphic" in2="effect1_backgroundBlur_0_1" result="shape"/>
</filter>
<radialGradient id="paint0_radial_0_1" cx="0" cy="0" r="1" gradientUnits="userSpaceOnUse" gradientTransform="translate(6.26713e-05 -18.2819) rotate(50.3709) scale(2761.38 1871.63)">
<stop stop-color="white" stop-opacity="0.4"/>
<stop offset="1" stop-color="white" stop-opacity="0"/>
</radialGradient>
<radialGradient id="paint1_radial_0_1" cx="0" cy="0" r="1" gradientUnits="userSpaceOnUse" gradientTransform="translate(218.665 -57.8924) rotate(69.6725) scale(2323.27 1798.12)">
<stop stop-color="#A8A8A8" stop-opacity="0.83"/>
<stop offset="1" stop-color="#B3B3B3" stop-opacity="0"/>
</radialGradient>
<radialGradient id="paint2_radial_0_1" cx="0" cy="0" r="1" gradientUnits="userSpaceOnUse" gradientTransform="translate(1510.78 2011) rotate(-135.902) scale(963.277 617.631)">
<stop stop-color="#D3D3D3" stop-opacity="0.66"/>
<stop offset="1" stop-color="#A9A9A9" stop-opacity="0"/>
</radialGradient>
<radialGradient id="paint3_radial_0_1" cx="0" cy="0" r="1" gradientUnits="userSpaceOnUse" gradientTransform="translate(-19.8786 1910.45) rotate(-37.1886) scale(1497.17 900.113)">
<stop stop-color="#F2F2F2"/>
<stop offset="1" stop-color="#828282" stop-opacity="0"/>
</radialGradient>
</defs>
</svg>
